<svg width="84" height="24" viewBox="0 0 84 24" fill="none" xmlns="http://www.w3.org/2000/svg">
<path d="M8.5059 19.0256L5.85013 15.1844C5.73869 15.1969 5.57155 15.2031 5.34869 15.2031H2.41434V19.0256H0V5.90924H5.34869C6.47538 5.90924 7.45349 6.09662 8.28304 6.47137C9.12496 6.84612 9.76878 7.38327 10.2145 8.08281C10.6602 8.78235 10.8831 9.61305 10.8831 10.5749C10.8831 11.5618 10.6417 12.4112 10.1588 13.1232C9.6883 13.8353 9.00734 14.3662 8.11589 14.7159L11.106 19.0256H8.5059ZM8.45018 10.5749C8.45018 9.73797 8.1778 9.09464 7.63302 8.64494C7.08825 8.19524 6.28966 7.97038 5.23726 7.97038H2.41434V13.1982H5.23726C6.28966 13.1982 7.08825 12.9733 7.63302 12.5236C8.1778 12.0614 8.45018 11.4119 8.45018 10.5749Z" fill="#2B3A67"/>
<path d="M22.1459 19.213C20.3506 19.213 18.9515 18.7071 17.9487 17.6952C16.9458 16.6709 16.4443 15.2094 16.4443 13.3106V5.90924H18.8587V13.2169C18.8587 15.7902 19.9606 17.0769 22.1645 17.0769C24.3559 17.0769 25.4517 15.7902 25.4517 13.2169V5.90924H27.8289V13.3106C27.8289 15.2094 27.3274 16.6709 26.3246 17.6952C25.3341 18.7071 23.9412 19.213 22.1459 19.213Z" fill="#2B3A67"/>
<path d="M45.7333 5.90924V19.0256H43.7461L36.5774 10.144V19.0256H34.1816V5.90924H36.1688L43.3375 14.7909V5.90924H45.7333Z" fill="#2B3A67"/>
<path d="M71.9883 19.0256L69.2954 14.9595L66.6396 19.0256H62.4424L67.1782 12.3925L62.6467 5.90924H66.7882L69.3883 9.69425L71.9512 5.90924H75.9256L71.394 12.2426L76.2227 19.0256H71.9883Z" fill="#2B3A67"/>
<path d="M79.8765 24V22.8974H82.6974V1.10256H79.8765V0H83.9681V24H79.8765Z" fill="#FE794F"/>
<path d="M53.8938 0H57.9855V1.10256H55.1645V22.8974H57.9855V24H53.8938V0Z" fill="#FE794F"/>
</svg>
